<svg width="17" height="16" viewBox="0 0 17 16" fill="none" xmlns="http://www.w3.org/2000/svg">
<path d="M1.13416 6.75732C0.581871 6.75732 0.134155 7.20504 0.134155 7.75732C0.134155 8.30961 0.58187 8.75732 1.13416 8.75732L1.13416 6.75732ZM16.7072 8.46443C17.0977 8.07391 17.0977 7.44074 16.7072 7.05022L10.3433 0.686257C9.95274 0.295732 9.31957 0.295732 8.92905 0.686257C8.53852 1.07678 8.53852 1.70995 8.92905 2.10047L14.5859 7.75732L8.92905 13.4142C8.53852 13.8047 8.53852 14.4379 8.92905 14.8284C9.31957 15.2189 9.95274 15.2189 10.3433 14.8284L16.7072 8.46443ZM1.13416 8.75732L16.0001 8.75732L16.0001 6.75732L1.13416 6.75732L1.13416 8.75732Z" fill="#1D68F4"/>
</svg>
